<svg width="191" height="161" viewBox="0 0 191 161" fill="none" xmlns="http://www.w3.org/2000/svg">
<path d="M126.017 54.9141C121.797 26.5212 95.5 2 95.5 2C95.5 2 69.2031 26.5212 64.9826 54.9141M45.5035 47.1706C42.5816 30.3929 47.4514 16.5191 47.4514 16.5191C47.4514 16.5191 61.0868 21.6815 71.8004 34.2647M145.497 47.1706C148.418 30.3929 143.549 16.5191 143.549 16.5191C143.549 16.5191 130.238 21.6815 119.2 34.2647M95.5 158.807V109.764M95.5 158.807C14.3368 163.646 14.9861 76.2088 12.7135 62.9803C10.441 49.7518 2 45.2347 2 45.2347M95.5 158.807C71.8004 152.676 58.8142 116.862 51.6719 92.9865C39.0104 50.7197 2 45.2347 2 45.2347M95.5 158.807C176.663 163.646 176.014 76.2088 178.286 62.9803C180.559 49.7518 189 45.2347 189 45.2347M95.5 158.807C119.2 152.354 132.186 116.862 139.328 92.9865C151.99 50.7197 189 45.2347 189 45.2347M95.5 109.764C95.5 74.273 66.2813 45.2347 30.5694 45.2347H2M95.5 109.764C95.5 74.273 124.719 45.2347 160.431 45.2347H189" stroke="#F5E6DC" stroke-width="3" stroke-miterlimit="10" stroke-linecap="round" stroke-linejoin="round"/>
</svg>
