<?xml version="1.0" standalone="no"?>
<!DOCTYPE svg PUBLIC "-//W3C//DTD SVG 20010904//EN"
 "http://www.w3.org/TR/2001/REC-SVG-20010904/DTD/svg10.dtd">
<svg version="1.0" xmlns="http://www.w3.org/2000/svg"
 width="250.000000pt" height="94.000000pt" viewBox="0 0 250.000000 94.000000"
 preserveAspectRatio="xMidYMid meet">

<g transform="translate(0.000000,94.000000) scale(0.100000,-0.100000)"
fill="#000000" stroke="none">
<path d="M465 901 c-86 -23 -184 -95 -236 -177 -38 -58 -45 -64 -75 -64 -61 0
-74 -25 -74 -138 0 -90 2 -100 23 -120 16 -16 36 -22 66 -22 l42 0 -8 38 c-12
58 -7 162 11 212 38 103 126 193 226 231 82 31 214 24 292 -14 79 -39 143
-104 181 -185 29 -61 32 -76 31 -157 -1 -74 -5 -100 -27 -148 -49 -108 -192
-227 -239 -198 -10 6 -62 11 -117 11 -92 0 -101 -2 -115 -22 -20 -29 -20 -34
4 -58 17 -17 33 -20 115 -20 90 0 97 2 120 26 13 14 47 37 77 52 67 33 139
106 173 177 24 48 31 55 57 55 17 0 39 10 53 25 23 22 25 32 25 113 0 110 -18
142 -79 142 -36 0 -40 4 -75 60 -42 67 -96 116 -176 156 -46 23 -69 28 -150
30 -52 2 -108 0 -125 -5z"/>
<path d="M1165 728 c-7 -20 -55 -227 -55 -238 0 -17 77 -12 84 5 4 11 -1 15
-19 15 -28 0 -29 1 -15 52 8 26 17 38 32 40 29 4 36 28 8 28 -20 0 -22 4 -16
31 3 17 6 35 6 40 0 5 11 9 24 9 13 0 26 7 30 15 4 12 -3 15 -35 15 -23 0 -42
-5 -44 -12z"/>
<path d="M1287 733 c-7 -12 -57 -222 -57 -240 0 -13 8 -15 42 -10 59 8 70 27
100 169 9 45 9 60 -1 72 -14 16 -76 22 -84 9z m53 -43 c0 -43 -34 -172 -47
-177 -25 -10 -25 4 -3 101 15 64 27 96 36 96 8 0 14 -9 14 -20z"/>
<path d="M1549 713 c-30 -79 -79 -216 -79 -224 0 -20 28 -7 34 16 5 18 13 25
32 25 20 0 25 -4 22 -22 -2 -15 2 -23 12 -23 12 0 17 19 22 80 4 44 9 101 11
128 4 44 3 47 -20 47 -16 0 -27 -8 -34 -27z m16 -119 c-4 -24 -11 -34 -24 -34
-18 0 -18 3 3 58 16 44 22 52 24 33 2 -13 1 -39 -3 -57z"/>
<path d="M1675 728 c-7 -19 -55 -228 -55 -239 0 -19 71 -9 94 14 28 29 65 190
49 216 -13 20 -81 28 -88 9z m59 -26 c9 -16 -35 -183 -50 -189 -8 -3 -17 -3
-20 -1 -2 3 6 48 18 101 21 88 36 114 52 89z"/>
<path d="M1806 653 c-4 -49 -8 -107 -10 -130 -3 -39 -1 -43 18 -43 22 0 34 26
114 248 2 6 -3 12 -11 12 -10 0 -27 -34 -50 -97 l-36 -98 6 98 c5 84 4 97 -10
97 -12 0 -16 -18 -21 -87z"/>
<path d="M1982 713 c-51 -131 -82 -214 -82 -223 0 -21 30 -9 36 15 4 18 13 25
30 25 19 0 24 -5 24 -25 0 -15 6 -25 14 -25 10 0 15 25 20 103 4 56 9 114 12
130 5 23 2 27 -19 27 -18 0 -28 -8 -35 -27z m13 -120 c-3 -19 -12 -33 -20 -33
-19 0 -19 2 3 67 14 44 18 49 20 26 2 -14 1 -41 -3 -60z"/>
<path d="M2106 728 c-3 -7 -14 -55 -25 -106 -12 -52 -24 -104 -27 -118 -5 -18
-2 -24 10 -24 9 0 18 12 22 28 3 15 12 50 19 77 l12 50 7 -50 c12 -86 17 -105
27 -105 12 0 12 0 39 120 12 52 24 105 27 118 4 16 1 22 -11 22 -15 0 -25 -27
-42 -115 -8 -44 -11 -38 -22 49 -7 55 -26 85 -36 54z"/>
<path d="M2271 719 c-11 -12 -25 -47 -32 -78 -6 -31 -16 -70 -21 -88 -17 -57
21 -91 72 -63 17 9 40 58 40 86 0 27 -31 14 -36 -16 -7 -31 -30 -58 -41 -46
-8 8 26 167 39 184 19 22 30 12 26 -23 -3 -28 -1 -35 13 -35 22 0 36 65 18 86
-17 21 -55 17 -78 -7z"/>
<path d="M2377 617 c-15 -67 -27 -126 -27 -130 0 -14 78 -7 84 8 4 11 -2 15
-20 15 -23 0 -24 2 -18 38 7 43 12 49 38 54 27 4 33 28 7 28 -22 0 -26 16 -15
58 4 14 14 22 29 22 13 0 25 7 29 15 4 12 -3 15 -37 15 l-43 0 -27 -123z"/>
<path d="M380 555 l0 -155 90 0 90 0 0 143 c0 98 -4 147 -12 155 -7 7 -43 12
-90 12 l-78 0 0 -155z m140 90 c0 -15 -102 -13 -108 3 -3 10 9 12 52 10 31 -2
56 -7 56 -13z m0 -50 c0 -15 -102 -13 -108 3 -3 10 9 12 52 10 31 -2 56 -7 56
-13z m0 -50 c0 -15 -102 -13 -108 3 -3 10 9 12 52 10 31 -2 56 -7 56 -13z m0
-50 c0 -5 -25 -11 -55 -13 -45 -2 -55 0 -55 13 0 13 10 15 55 13 30 -2 55 -7
55 -13z m0 -50 c0 -5 -25 -11 -55 -13 -45 -2 -55 0 -55 13 0 13 10 15 55 13
30 -2 55 -7 55 -13z"/>
<path d="M590 691 c-5 -11 -10 -81 -10 -155 l0 -136 90 0 90 0 0 155 0 155
-80 0 c-68 0 -81 -3 -90 -19z m138 -43 c-5 -14 -80 -23 -105 -14 -30 12 0 26
53 26 40 0 55 -4 52 -12z m2 -53 c0 -11 -13 -15 -54 -15 -51 0 -74 9 -59 24 3
3 30 6 60 6 40 0 53 -4 53 -15z m0 -50 c0 -11 -13 -15 -54 -15 -51 0 -74 9
-59 24 3 3 30 6 60 6 40 0 53 -4 53 -15z m0 -50 c0 -11 -13 -15 -54 -15 -51 0
-74 9 -59 24 3 3 30 6 60 6 40 0 53 -4 53 -15z m0 -50 c0 -11 -13 -15 -54 -15
-51 0 -74 9 -59 24 3 3 30 6 60 6 40 0 53 -4 53 -15z"/>
<path d="M324 667 c-2 -7 -3 -85 -2 -172 l3 -160 245 0 245 0 0 169 c0 127 -3
170 -12 174 -10 3 -13 -32 -13 -152 l0 -156 -217 2 -218 3 -3 153 c-1 93 -6
152 -13 152 -5 0 -12 -6 -15 -13z"/>
<path d="M1395 590 c-4 -6 8 -10 29 -10 20 0 36 5 36 10 0 6 -13 10 -29 10
-17 0 -33 -4 -36 -10z"/>
<path d="M1054 356 c-9 -24 0 -69 16 -74 13 -4 13 -3 2 11 -8 9 -12 26 -10 39
2 18 9 23 31 21 15 -1 25 2 22 8 -9 14 -55 11 -61 -5z"/>
<path d="M1150 325 c0 -25 5 -45 10 -45 6 0 10 9 10 20 0 26 14 25 34 -2 l16
-23 -6 26 c-3 15 -1 30 5 33 15 10 2 36 -18 35 -10 0 -11 -2 -3 -6 20 -8 14
-33 -9 -33 -16 0 -20 5 -16 20 3 13 0 20 -9 20 -10 0 -14 -13 -14 -45z"/>
<path d="M1262 358 c-22 -22 -11 -78 15 -78 12 0 12 3 -2 16 -9 9 -14 23 -11
31 3 8 6 19 6 24 0 5 9 9 21 9 19 0 21 -5 17 -40 -4 -45 8 -54 18 -13 12 46
-33 82 -64 51z"/>
<path d="M1353 354 c4 -11 9 -31 13 -46 3 -16 10 -28 14 -28 11 0 24 40 16 47
-3 4 -6 1 -6 -5 0 -7 -4 -12 -10 -12 -5 0 -10 11 -10 24 0 14 -5 28 -11 32 -7
4 -9 0 -6 -12z"/>
<path d="M1400 355 c0 -8 4 -15 9 -15 5 0 11 -13 15 -30 3 -16 10 -30 15 -30
10 0 25 50 16 58 -3 3 -5 -2 -5 -11 0 -29 -17 -19 -23 13 -7 31 -27 42 -27 15z"/>
<path d="M1551 348 c6 -12 15 -33 19 -47 7 -26 7 -25 12 6 2 18 1 30 -3 27 -4
-2 -10 5 -14 16 -3 11 -11 20 -16 20 -6 0 -5 -9 2 -22z"/>
<path d="M1642 358 c-19 -19 -12 -78 9 -78 6 0 5 9 -1 20 -15 28 -3 60 21 60
15 0 19 -7 19 -34 0 -19 -5 -37 -10 -39 -6 -3 -5 -4 2 -3 23 4 33 33 20 60
-12 28 -40 34 -60 14z"/>
<path d="M1740 361 c-11 -27 2 -81 19 -81 11 0 12 3 4 8 -6 4 -13 25 -15 47
-2 22 -5 34 -8 26z"/>
<path d="M1802 333 c-1 -23 -8 -44 -14 -46 -10 -4 -10 -6 0 -6 17 -1 24 20 19
61 -3 30 -4 30 -5 -9z"/>
<path d="M1841 323 c0 -39 2 -44 9 -25 12 27 27 28 35 2 10 -33 20 -23 20 22
0 28 -5 43 -15 46 -12 4 -13 3 -3 -10 15 -17 7 -28 -20 -28 -14 0 -18 5 -14
20 3 11 1 20 -4 20 -5 0 -9 -21 -8 -47z"/>
<path d="M1987 356 c-6 -15 6 -29 37 -40 11 -4 16 -12 12 -22 -3 -8 -2 -12 4
-9 19 12 10 35 -16 45 -17 7 -24 15 -20 25 3 8 1 15 -3 15 -5 0 -11 -6 -14
-14z"/>
<path d="M2082 325 c-1 -43 1 -47 10 -27 14 27 28 28 35 2 3 -11 9 -20 15 -20
5 0 4 10 -3 21 -6 12 -9 33 -6 48 l5 26 -15 -22 c-9 -13 -19 -23 -24 -23 -4 0
-10 10 -12 23 -2 12 -5 0 -5 -28z"/>
<path d="M2183 325 c0 -27 2 -38 4 -22 2 15 2 37 0 50 -2 12 -4 0 -4 -28z"/>
<path d="M2220 325 c0 -44 0 -45 33 -44 23 1 26 3 10 6 -19 4 -23 11 -23 44 0
21 -4 39 -10 39 -5 0 -10 -20 -10 -45z"/>
<path d="M2302 328 c-2 -46 -1 -48 26 -47 22 1 23 2 5 6 -18 3 -23 13 -26 46
l-4 42 -1 -47z"/>
<path d="M2380 350 c0 -13 10 -24 26 -30 17 -7 24 -15 20 -25 -3 -8 -1 -15 4
-15 22 0 9 41 -16 50 -17 7 -24 15 -20 25 3 8 1 15 -4 15 -6 0 -10 -9 -10 -20z"/>
<path d="M1100 310 c13 -9 13 -11 0 -21 -13 -9 -13 -10 0 -6 22 6 25 37 3 37
-15 0 -16 -2 -3 -10z"/>
<path d="M1987 289 c7 -7 15 -10 18 -7 3 3 -2 9 -12 12 -14 6 -15 5 -6 -5z"/>
</g>
</svg>
